<svg xmlns="http://www.w3.org/2000/svg" width="64" height="64" fill="#FFC107" viewBox="0 0 24 24">
  <path d="M12 4a1 1 0 0 1 1-1V1a1 1 0 1 0-2 0v2a1 1 0 0 1 1 1zm0 16a1 1 0 0 1-1 1v2a1 1 0 0 0 2 0v-2a1 1 0 0 1-1-1zm10-5a1 1 0 0 0-1-1h-2a1 1 0 0 0 0 2h2a1 1 0 0 0 1-1zM5 12a1 1 0 0 0-1-1H2a1 1 0 1 0 0 2h2a1 1 0 0 0 1-1zm12.95-6.364a1 1 0 0 0-1.414 0L15.12 6.05a1 1 0 1 0 1.414 1.415l1.414-1.415a1 1 0 0 0 0-1.414zM6.05 17.95a1 1 0 1 0 1.414 1.414l1.415-1.414a1 1 0 0 0-1.415-1.414L6.05 17.95zm0-11.9a1 1 0 0 0 0 1.414L7.464 8.88a1 1 0 0 0 1.415-1.415L7.464 6.05a1 1 0 0 0-1.414 0zM17.95 17.95a1 1 0 0 0 0-1.414l-1.415-1.414a1 1 0 0 0-1.415 1.414l1.415 1.414a1 1 0 0 0 1.415 0zM12 8a4 4 0 1 0 0 8 4 4 0 0 0 0-8z"/>
</svg>
